Coordinates
version=1
nRows=22
nColumns=24
inDegrees=yes

Units are S.I. units (second, meters, Newtons, ...)
Angles are in degrees.

endheader
time	pelvis_tilt	pelvis_list	pelvis_rotation	pelvis_tx	pelvis_ty	pelvis_tz	hip_flexion_r	hip_adduction_r	hip_rotation_r	knee_angle_r	ankle_angle_r	subtalar_angle_r	mtp_angle_r	hip_flexion_l	hip_adduction_l	hip_rotation_l	knee_angle_l	ankle_angle_l	subtalar_angle_l	mtp_angle_l	lumbar_extension	lumbar_bending	lumbar_rotation
      3.18500000	     -2.58410227	     -4.94854007	     -3.95406402	     -1.12915290	      0.93891248	      0.23738745	     12.39564534	     12.38747773	      3.90937277	    -20.83549128	     14.09838913	    -16.15847672	      0.00000000	     25.02781254	     -6.51215412	     -4.31457202	    -69.37218337	     10.07110982	    -17.42488339	      0.00000000	    -10.91499784	      5.65000500	     -2.09942750
      3.19000000	     -2.51045475	     -4.70607828	     -4.14808339	     -1.12204339	      0.93999031	      0.23813475	     11.54374574	     12.15941166	      4.21912750	    -20.32353712	     14.28565606	    -16.10865091	      0.00000000	     25.53872984	     -6.29203404	     -4.41401459	    -68.52804071	     10.71083287	    -16.65620207	      0.00000000	    -10.98441543	      5.29418385	     -1.90779809
      3.19500000	     -2.47028677	     -4.46064644	     -4.35343892	     -1.11494084	      0.94094878	      0.23888037	     10.75069287	     11.92186249	      4.49134268	    -19.84236355	     14.45736768	    -16.04666369	      0.00000000	     26.04936799	     -6.07225418	     -4.53396830	    -67.58865785	     11.30449008	    -15.96821822	      0.00000000	    -11.01039472	      4.93978265	     -1.74233453
      3.20000000	     -2.40481394	     -4.23033617	     -4.57156497	     -1.10785916	      0.94181820	      0.23965198	      9.93364608	     11.70032446	      4.80555235	    -19.36491143	     14.65898551	    -16.01015835	      0.00000000	     26.50588520	     -5.87121964	     -4.66379030	    -66.57748899	     11.83138447	    -15.35542012	      0.00000000	    -11.07160638	      4.59570451	     -1.50430492
      3.20500000	     -2.36654130	     -4.00428314	     -4.79602516	     -1.10077780	      0.94257464	      0.24038952	      9.16913687	     11.47487057	      5.08486603	    -18.92002451	     14.83242824	    -15.96873051	      0.00000000	     26.95376910	     -5.67136882	     -4.80370086	    -65.47056696	     12.31247840	    -14.84227763	      0.00000000	    -11.09680738	      4.26958205	     -1.30771577
      3.21000000	     -2.32673051	     -3.79127159	     -5.02672438	     -1.09369869	      0.94322012	      0.24116566	      8.41289988	     11.26238442	      5.37121442	    -18.49036662	     15.01927117	    -15.93649758	      0.00000000	     27.36997098	     -5.48755055	     -4.94537403	    -64.28843640	     12.73082144	    -14.41383484	      0.00000000	    -11.12379818	      3.94507107	     -1.08201695
      3.21500000	     -2.29393762	     -3.59226983	     -5.26177478	     -1.08661885	      0.94374939	      0.24191115	      7.68001629	     11.05879858	      5.64646623	    -18.08490169	     15.21098959	    -15.91475682	      0.00000000	     27.76246025	     -5.31660267	     -5.09230363	    -63.02867421	     13.09291450	    -14.06773047	      0.00000000	    -11.14054706	      3.64875186	     -0.85389828
      3.22000000	     -2.26905995	     -3.41346716	     -5.49888693	     -1.07953535	      0.94415476	      0.24266068	      6.97123895	     10.87369358	      5.90652758	    -17.70524273	     15.40449127	    -15.90231388	      0.00000000	     28.13298928	     -5.16669684	     -5.23740396	    -61.69556880	     13.40553005	    -13.80132433	      0.00000000	    -11.14476983	      3.37339024	     -0.63114802
      3.22500000	     -2.25922599	     -3.24954952	     -5.72983017	     -1.07244563	      0.94442475	      0.24338501	      6.29504510	     10.70068821	      6.15105658	    -17.35423926	     15.60279636	    -15.89856105	      0.00000000	     28.48896133	     -5.02540886	     -5.36876867	    -60.28985280	     13.68710887	    -13.59496167	      0.00000000	    -11.13189867	      3.12410045	     -0.42019600
      3.23000000	     -2.23687451	     -3.10184011	     -5.97510147	     -1.06536975	      0.94461045	      0.24406279	      5.62139117	     10.53806671	      6.41790132	    -17.03396618	     15.80117918	    -15.90340591	      0.00000000	     28.79593537	     -4.89383735	     -5.49542266	    -58.80846124	     13.92643364	    -13.44833301	      0.00000000	    -11.14248287	      2.90013780	     -0.17202300
      3.23500000	     -2.21681758	     -2.97617020	     -6.21462708	     -1.05827892	      0.94467970	      0.24475780	      4.96191790	     10.39842187	      6.67565738	    -16.73836702	     16.00671417	    -15.92248824	      0.00000000	     29.07453530	     -4.78393682	     -5.60773116	    -57.26112885	     14.13066285	    -13.33685033	      0.00000000	    -11.14536215	      2.69352377	      0.07177209
      3.24000000	     -2.25565900	     -2.86882976	     -6.40400909	     -1.05120555	      0.94454166	      0.24534646	      4.39534583	     10.27626797	      6.86099530	    -16.48934030	     16.21845976	    -15.94628016	      0.00000000	     29.39927158	     -4.65427408	     -5.61165385	    -55.66090868	     14.33790774	    -13.19514875	      0.00000000	    -11.08411400	      2.53163510	      0.26439135
      3.24500000	     -2.19574769	     -2.77051366	     -6.69223891	     -1.04408235	      0.94447725	      0.24608608	      3.70785770	     10.15807954	      7.16576764	    -16.23568349	     16.44874734	    -15.96573281	      0.00000000	     29.55505192	     -4.60069931	     -5.78856664	    -53.96753908	     14.46314965	    -13.16036637	      0.00000000	    -11.13375318	      2.34913009	      0.56839857
      3.25000000	     -2.17694771	     -2.69335739	     -6.91827188	     -1.03696984	      0.94423836	      0.24670401	      3.08631653	     10.05879637	      7.40245092	    -16.01576652	     16.67275663	    -16.00739163	      0.00000000	     29.73880560	     -4.52372222	     -5.84330409	    -52.22670154	     14.60730147	    -13.05381182	      0.00000000	    -11.14329268	      2.21410094	      0.80901466
      3.25500000	     -2.13895732	     -2.64064886	     -7.15345996	     -1.02988715	      0.94393844	      0.24731706	      2.45767599	      9.98075899	      7.64654497	    -15.82419958	     16.89953531	    -16.04513687	      0.00000000	     29.86722255	     -4.46595547	     -5.87000549	    -50.42292168	     14.72650907	    -12.94301196	      0.00000000	    -11.18735940	      2.09896161	      1.09699081
      3.26000000	     -2.19624712	     -2.59217234	     -7.32696614	     -1.02277254	      0.94339211	      0.24786679	      1.95629264	      9.91717759	      7.79378051	    -15.67505492	     17.14707108	    -16.08050016	      0.00000000	     30.08111910	     -4.39882807	     -5.82456558	    -48.57560114	     14.86703171	    -12.72948188	      0.00000000	    -11.10902372	      2.00929954	      1.27038675
      3.26500000	     -2.15134760	     -2.54350583	     -7.58759370	     -1.01565480	      0.94295280	      0.24845813	      1.33781399	      9.83221903	      8.03271387	    -15.52321597	     17.41526427	    -16.08186922	      0.00000000	     30.12398178	     -4.37095904	     -5.90930545	    -46.63743641	     14.95240568	    -12.56533899	      0.00000000	    -11.16255646	      1.91126112	      1.54973979
      3.27000000	     -2.11540791	     -2.52593817	     -7.79934127	     -1.00856977	      0.94241130	      0.24899922	      0.74597047	      9.78088266	      8.21633702	    -15.40012432	     17.67119632	    -16.09970136	      0.00000000	     30.15362368	     -4.33890611	     -5.86725617	    -44.65509505	     15.04647893	    -12.30940526	      0.00000000	    -11.22090230	      1.84309566	      1.80275254
      3.27500000	     -2.19260808	     -2.51406911	     -7.94248540	     -1.00147698	      0.94160842	      0.24945104	      0.30162930	      9.75235120	      8.31426906	    -15.32060312	     17.93344796	    -16.13514056	      0.00000000	     30.29380354	     -4.29996290	     -5.74750871	    -42.64198946	     15.15438855	    -11.93995828	      0.00000000	    -11.14321150	      1.81155305	      1.95092040
      3.28000000	     -2.15072760	     -2.48302061	     -8.17109303	     -0.99431834	      0.94096152	      0.24999454	     -0.28770078	      9.67609381	      8.48498425	    -15.22042423	     18.23369490	    -16.10722206	      0.00000000	     30.23406761	     -4.28187261	     -5.76564975	    -40.53371048	     15.22193473	    -11.59018118	      0.00000000	    -11.19913017	      1.73180099	      2.18263143
      3.28500000	     -2.14167473	     -2.48065340	     -8.33799385	     -0.98720810	      0.94018534	      0.25044887	     -0.82101344	      9.63505774	      8.58736536	    -15.15287924	     18.51596164	    -16.09958916	      0.00000000	     30.19460287	     -4.25875781	     -5.65199873	    -38.39770874	     15.28417816	    -11.15477097	      0.00000000	    -11.23579511	      1.69681741	      2.36210824
      3.29000000	     -2.13418650	     -2.48299184	     -8.48700765	     -0.98007421	      0.93935774	      0.25083590	     -1.34461603	      9.59295817	      8.67790004	    -15.10487614	     18.80120134	    -16.07107978	      0.00000000	     30.12404235	     -4.23474242	     -5.52265746	    -36.21529933	     15.32401215	    -10.68863066	      0.00000000	    -11.27466736	      1.67652741	      2.54090378
